HIERARCHY
ROOT hip
{
	OFFSET 0.000000 0.000000 0.000000 
	CHANNELS 6 Xposition Yposition Zposition Xrotation Zrotation Yrotation
	JOINT abdomen
	{
		OFFSET 0.000000 3.402643 0.000000 
		CHANNELS 3 Xrotation Zrotation Yrotation
		JOINT chest
		{
			OFFSET 0.000000 8.438565 -0.680529 
			CHANNELS 3 Xrotation Zrotation Yrotation
			JOINT neck
			{
				OFFSET 0.000000 10.207942 -0.272212 
				CHANNELS 3 Xrotation Zrotation Yrotation
				JOINT head
				{
					OFFSET 0.000000 3.130431 0.000000 
					CHANNELS 3 Xrotation Zrotation Yrotation
					End Site
					{
						OFFSET 0.000000 3.130435 0.000000 
					}
				}
			}
			JOINT lCollar
			{
				OFFSET 3.470700 6.669187 -0.816635 
				CHANNELS 3 Yrotation Zrotation Xrotation
				JOINT lShldr
				{
					OFFSET 3.198488 0.000000 0.000000 
					CHANNELS 3 Zrotation Yrotation Xrotation
					JOINT lForeArm
					{
						OFFSET 10.139888 0.000000 0.000000 
						CHANNELS 3 Yrotation Zrotation Xrotation
						JOINT lHand
						{
							OFFSET 8.370511 0.000000 0.000000 
							CHANNELS 3 Zrotation Yrotation Xrotation
							End Site
							{
								OFFSET 4.083176 0.000000 0.000000 
							}
						}
					}
				}
			}
			JOINT rCollar
			{
				OFFSET -3.470700 6.669187 -0.816635 
				CHANNELS 3 Yrotation Zrotation Xrotation
				JOINT rShldr
				{
					OFFSET -3.198488 0.000000 0.000000 
					CHANNELS 3 Zrotation Yrotation Xrotation
					JOINT rForeArm
					{
						OFFSET -10.139888 0.000000 0.000000 
						CHANNELS 3 Yrotation Zrotation Xrotation
						JOINT rHand
						{
							OFFSET -8.370511 0.000000 0.000000 
							CHANNELS 3 Zrotation Yrotation Xrotation
							End Site
							{
								OFFSET -4.083176 0.000000 0.000000 
							}
						}
					}
				}
			}
		}
	}
	JOINT lThigh
	{
		OFFSET 5.308129 -1.633274 1.361059 
		CHANNELS 3 Xrotation Zrotation Yrotation
		JOINT lShin
		{
			OFFSET -2.041588 -20.007561 0.000000 
			CHANNELS 3 Xrotation Zrotation Yrotation
			JOINT lFoot
			{
				OFFSET 0.000000 -19.190928 -1.224953 
				CHANNELS 3 Xrotation Yrotation Zrotation
				End Site
				{
					OFFSET 0.000000 -2.449906 4.627600 
				}
			}
		}
	}
	JOINT rThigh
	{
		OFFSET -5.308129 -1.633274 1.361059 
		CHANNELS 3 Xrotation Zrotation Yrotation
		JOINT rShin
		{
			OFFSET 2.041588 -20.007561 0.000000 
			CHANNELS 3 Xrotation Zrotation Yrotation
			JOINT rFoot
			{
				OFFSET 0.000000 -19.190928 -1.224953 
				CHANNELS 3 Xrotation Yrotation Zrotation
				End Site
				{
					OFFSET 0.000000 -2.449906 4.627600 
				}
			}
		}
	}
}
MOTION
Frames: 11
Frame Time: 0.011111
4.176519 51.029869 3.393466 2.248224 10.138943 -78.519958 13.960542 0.263561 -9.291366 -22.438372 3.475730 -2.555232 -1.318805 9.536036 11.337629 -2.048901 -10.061766 24.872288 -10.187975 -12.782608 -2.553061 -40.156502 -22.916756 18.752388 -86.492928 1.727915 31.268230 8.524705 12.647240 -71.927139 11.162106 9.669281 -2.390417 49.377285 -14.619845 -13.136698 85.493660 -2.299229 27.298717 -8.534408 -12.637552 37.865089 1.328533 16.159765 -15.435181 37.484688 -4.855337 -5.789755 -12.257499 -3.212618 -3.850389 -30.167696 -10.643011 6.595542 41.966686 4.501728 6.293772 -21.731472 -8.129577 -0.339934 
4.762039 51.043320 3.580734 2.398379 10.464265 -78.430473 13.778347 0.390224 -9.400604 -22.418793 3.612823 -2.604231 0.204263 10.025578 11.186834 -4.315288 -11.408105 24.741247 -10.187975 -12.782608 -2.553061 -40.144756 -23.605297 19.132772 -86.450401 1.635751 31.117136 8.524705 12.647240 -72.005264 11.162106 9.669281 -2.390417 49.291389 -14.395402 -12.904928 85.517647 -2.268643 27.340757 -8.534408 -12.637552 37.650249 1.563076 16.228615 -15.822946 35.361794 -5.001985 -5.541554 -13.569016 -2.664830 -3.719593 -31.126528 -10.819157 7.285395 41.384266 4.540904 6.237678 -21.030579 -8.761938 -0.376978 
5.341541 51.051815 3.721627 2.633717 10.944388 -78.225571 13.394801 0.459488 -9.728376 -22.350300 3.898254 -2.700049 -0.119493 9.888182 11.272787 -3.763761 -11.026740 24.849253 -10.187975 -12.782608 -2.553061 -40.169918 -24.101419 19.428988 -86.418755 1.563088 30.994282 8.524705 12.647240 -71.907600 11.162106 9.669281 -2.390417 49.102619 -14.225535 -12.425617 85.555397 -2.213602 27.413630 -8.534408 -12.637552 37.415874 1.396819 16.444136 -16.147356 33.413780 -5.128423 -5.298393 -14.736804 -2.688201 -3.732681 -32.227158 -10.867749 8.166694 40.712017 4.599560 6.161037 -20.345013 -9.713215 -0.510401 
6.026890 51.089695 3.977924 2.558676 11.510950 -78.306229 13.336740 0.573200 -9.840956 -22.584938 3.925733 -2.755522 -0.443628 9.771370 11.340968 -3.494709 -10.774327 24.970364 -10.187975 -12.782608 -2.553061 -40.237305 -24.612827 19.587400 -86.388008 1.498462 30.851353 8.524705 12.647240 -71.956429 11.162106 9.669281 -2.390417 48.757378 -13.959906 -11.753074 85.595360 -2.159733 27.496508 -8.534408 -12.637552 37.132671 1.348465 16.073418 -16.502655 31.721693 -5.221127 -5.096039 -16.009056 -2.294647 -3.620660 -33.468311 -11.473274 8.846187 39.902210 4.651865 6.069729 -19.364437 -10.199285 -0.435244 
6.673296 51.140667 4.218291 2.462946 11.967391 -78.635223 13.374801 0.493739 -9.622301 -22.399195 4.023089 -2.685054 -0.603703 9.958759 11.222331 -4.150237 -11.197252 24.874723 -10.187975 -12.782608 -2.553061 -40.180794 -25.562206 19.752739 -86.356422 1.432180 30.688757 8.524705 12.647240 -72.151741 11.162106 9.669281 -2.390417 48.538956 -13.330082 -11.527143 85.637657 -2.096187 27.580349 -8.534408 -12.637552 36.751812 1.368164 15.650651 -16.856485 30.282337 -5.323598 -4.896530 -17.249805 -1.351306 -3.298621 -34.528339 -11.854865 9.876083 38.912846 4.729977 5.951685 -18.499332 -10.840976 -0.378459 
7.299528 51.198372 4.458659 2.409909 12.331156 -78.960548 13.438271 0.424401 -9.323325 -22.213408 4.071391 -2.584381 -0.534360 10.302696 11.071275 -5.039152 -11.839417 24.744240 -10.187975 -12.782608 -2.553061 -40.117874 -26.362980 20.010717 -86.329926 1.375357 30.535778 8.524705 12.647240 -72.542374 11.162106 9.669281 -2.390417 48.415184 -12.785263 -11.423331 85.660622 -2.064865 27.622000 -8.534408 -12.637552 36.292828 1.260687 15.291825 -17.312609 29.072351 -5.387025 -4.756246 -18.347477 -0.337056 -2.930890 -35.393402 -12.128153 11.182424 37.784615 4.813908 5.803103 -17.890015 -11.666380 -0.421614 
7.954786 51.255718 4.707169 2.347198 12.753286 -79.242050 13.478294 0.445865 -9.262362 -22.477493 4.157324 -2.584615 -0.339489 10.527099 11.115314 -5.321459 -12.104083 24.874870 -10.187975 -12.782608 -2.553061 -40.273094 -26.580118 20.212645 -86.307671 1.338643 30.400776 8.524705 12.647240 -72.991585 11.162106 9.669281 -2.390417 47.998772 -12.569055 -10.753991 85.664726 -2.056546 27.632654 -8.534408 -12.637552 35.892441 0.937687 14.921212 -17.799238 27.981546 -5.439788 -4.602736 -19.429882 0.621849 -2.526937 -36.275719 -12.440918 12.572419 36.506664 4.895807 5.658442 -17.233688 -12.607563 -0.495273 
8.629515 51.315903 4.942579 2.185082 13.244093 -79.605247 13.405017 0.336476 -9.434499 -22.790630 4.425848 -2.641167 0.044470 10.713534 11.274951 -5.616632 -12.379663 25.220634 -10.187975 -12.782608 -2.553061 -40.557060 -26.557411 20.297249 -86.290688 1.312353 30.285065 8.524705 12.647240 -73.108772 11.162106 9.669281 -2.390417 47.290977 -12.423653 -9.598624 85.666397 -2.057669 27.642332 -8.534408 -12.637552 35.579941 0.479892 14.407502 -18.218658 27.058121 -5.488953 -4.472455 -20.299768 1.795421 -2.028697 -37.209862 -12.841065 14.025521 35.076397 5.003778 5.487134 -16.397718 -13.670619 -0.492961 
9.296809 51.404400 5.170203 1.984770 13.788867 -80.139061 13.492514 0.084410 -9.232420 -22.751688 4.672995 -2.563870 -0.682450 10.736467 11.213285 -5.501010 -12.439788 25.180908 -10.187975 -12.782608 -2.553061 -40.603062 -27.165255 20.488443 -86.275063 1.287067 30.188616 8.524705 12.647240 -72.981827 11.162106 9.669281 -2.390417 46.903248 -11.916184 -9.026310 85.685898 -2.025262 27.684113 -8.534408 -12.637552 35.257671 -0.105455 13.829142 -18.592421 26.323788 -5.527694 -4.376327 -20.720221 2.669009 -1.676499 -38.148960 -13.212672 15.526771 33.466713 5.101836 5.295372 -15.524511 -14.761625 -0.460554 
9.966581 51.508121 5.414818 1.844639 14.299228 -80.777664 13.494987 -0.068414 -8.888169 -22.790947 4.712077 -2.460285 -0.857789 10.723290 11.179393 -5.723490 -12.360109 25.164936 -10.187975 -12.782608 -2.553061 -40.563511 -27.406853 20.685354 -86.263283 1.280985 30.091087 8.524705 12.647240 -72.854866 11.162106 9.669281 -2.390417 46.683037 -11.651277 -8.425086 85.713501 -1.986225 27.746115 -8.534408 -12.637552 35.013531 -0.760297 13.287638 -18.703016 25.709600 -5.557049 -4.298153 -21.134022 3.304656 -1.404482 -38.997871 -13.515533 17.030979 31.704611 5.209129 5.061981 -14.547779 -15.951415 -0.406999 
10.644140 51.621754 5.691295 1.712201 14.847820 -81.503944 13.402212 -0.098919 -8.431615 -22.644156 4.681066 -2.320762 -0.770203 10.666360 11.192267 -6.471308 -12.419300 25.263729 -10.187975 -12.782608 -2.553061 -40.615364 -27.857687 20.681026 -86.245155 1.263161 29.964836 8.524705 12.647240 -73.059944 11.162106 9.669281 -2.390417 46.346313 -11.274389 -7.803144 85.734383 -1.954078 27.787823 -8.534408 -12.637552 34.857277 -1.452839 12.728080 -18.571383 25.166374 -5.577184 -4.224994 -21.396444 3.766687 -1.204981 -39.877811 -13.827873 18.555485 29.806942 5.326120 4.816505 -13.425549 -17.260178 -0.252673 
